# xmcd CD database file
#
# Track frame offsets:
#	150
#	25625
#	47232
#	71145
#	91204
#	116317
#	147711
#	176777
#	195675
#	224796
#	253864
#
# Disc length: 3832 seconds
#
# Revision: 0
# Processed by: cddbd v1.5.2PL0 Copyright (c) Steve Scherf et al.
# Submitted via: CDex 1.51
#
DISCID=ad0ef60b
DTITLE=Bob Peckman - Go with the flow
DYEAR=1900
DGENRE=Jazz
TTITLE0=You dint know what love is
TTITLE1=Moonlight in Vermont
TTITLE2=Gentle rain
TTITLE3=Besame Mucho
TTITLE4=A Minor blues
TTITLE5=Polkadots and moonbeams
TTITLE6=Dear heart
TTITLE7=Little suede shoes
TTITLE8=Samba de orfeo
TTITLE9=Nothing ever changes
TTITLE10=Waitin' on Watson
EXTD=
EXTT0=
EXTT1=
EXTT2=
EXTT3=
EXTT4=
EXTT5=
EXTT6=
EXTT7=
EXTT8=
EXTT9=
EXTT10=
PLAYORDER=
